<?xml version="1.0" encoding="UTF-8"?>
<svg xmlns="http://www.w3.org/2000/svg" onmouseup="{ if(window.parent.document.onmouseup) window.parent.document.onmouseup(arguments[0]);}" xml:space="preserve" style="enable-background:new 0 0 46 46;" viewBox="0 0 46 46" y="0px" x="0px" id="Layer_1" version="1.1" xmlns:xlink="http://www.w3.org/1999/xlink"><style type="text/css">
	.st0{fill-rule:evenodd;clip-rule:evenodd;}
	.st1{fill-rule:evenodd;clip-rule:evenodd;fill:#FFFFFF;}
	.st2{display:none;}
	.st3{display:inline;}
	.st4{display:none;enable-background:new    ;}
	.st5{font-family:'SamsungSharpSans-Medium';}
	.st6{font-size:20.446px;}
</style><g id="p-043.-Offline-training"><g transform="translate(3.000000, 2.000000)" id="Button_previous-slide"><g id="Oval"><g><circle data-cppathid="10000" r="20" cy="20" cx="20" class="st0" id="path-1_00000063631581801037452230000002508793003108470705_"/></g><g><circle data-cppathid="10001" r="20" cy="20" cx="20" class="st1" id="path-1_00000039117267357335156970000016688461356506971014_"/></g></g><g id="Oval_00000099632209660407671710000011496420774113805244_"><g><circle data-cppathid="10002" r="20" cy="20" cx="20" class="st0" id="path-3_00000090268325968206622240000014939049475704045235_"/></g><g><circle data-cppathid="10003" r="20" cy="20" cx="20" class="st1" id="path-3_00000130631246594082064940000006555670924055498941_"/></g></g><g transform="translate(11.000000, 11.000000)" id="Group_00000116198553939986886340000010615638031311417985_"><g class="st2" transform="translate(9.500000, 9.500000) rotate(180.000000) translate(-9.500000, -9.500000) " id="old_x2F_icons_x2F_arrow_x5F_back"><g class="st3" transform="translate(9.494626, 9.492359) rotate(-360.000000) translate(-9.494626, -9.492359) " id="icon"><path data-cppathid="10004" d="M8.3,1.7l1.1,1.1l-6,6h15.2v1.5H3.5       l5.9,5.9l-1.1,1.1L0.5,9.5l1.1-1.1l0,0L8.3,1.7z" class="st0" id="path-5_00000040535771688583148110000005497070770943529094_"/></g><g class="st3" id="Group"><g id="old_x2F_colors_x2F_main_x2F_black"><rect data-cppathid="10005" height="19" width="19" class="st0" y="0" id="colors_x2F_main_x2F_black"/></g></g></g></g></g></g><text data-cppathid="10006" class="st4 st5 st6" transform="matrix(1 0 0 1 7.297 29.2357)">CC</text><polygon data-cppathid="10007" points="34.6,23 14.2,11.2 14.2,34.8 " class="st2"/><g class="st2"><rect data-cppathid="10008" height="23.6" width="5.5" class="st3" y="11.2" x="15.4"/><rect data-cppathid="10009" height="23.6" width="5.5" class="st3" y="11.2" x="25.1"/></g><g class="st2" id="play"><path data-cppathid="10010" d="M16.8,36.3c-0.2,0-0.5-0.1-0.7-0.2c-0.5-0.3-0.8-0.8-0.8-1.3l0.1-23.6c0-0.5,0.3-1,0.8-1.3   c0.5-0.3,1-0.2,1.5,0l19.2,11.8c0.4,0.3,0.7,0.7,0.7,1.3c0,0.5-0.3,1-0.7,1.3L17.6,36.1C17.4,36.2,17.1,36.3,16.8,36.3z M18.4,13.8   l-0.1,18.3l15-9.2L18.4,13.8z" class="st3"/></g><g id="pause"><path data-cppathid="10011" d="M31.1,35.3c-0.8,0-1.5-0.7-1.5-1.5V10.1c0-0.8,0.7-1.5,1.5-1.5c0.8,0,1.5,0.7,1.5,1.5v23.7C32.6,34.7,31.9,35.3,31.1,35.3z   "/><path data-cppathid="10012" d="M14.9,35.3c-0.8,0-1.5-0.7-1.5-1.5V10.1c0-0.8,0.7-1.5,1.5-1.5c0.8,0,1.5,0.7,1.5,1.5v23.7C16.4,34.7,15.7,35.3,14.9,35.3z   "/></g></svg>